<svg width="19" height="19" viewBox="0 0 19 19" fill="none" xmlns="http://www.w3.org/2000/svg">
<path d="M18.5108 14.0138L16.1488 11.6518C15.4976 11.0006 14.438 11.0006 13.7868 11.6518L12.7132 12.7254C12.2199 13.2187 11.4171 13.2186 10.924 12.7256L6.27047 8.06808C5.77599 7.57359 5.77591 6.77325 6.27047 6.2787C6.4434 6.10576 6.93996 5.6092 7.34408 5.20508C7.99242 4.55678 8.00148 3.50046 7.34345 2.84251L4.98211 0.488583C4.33091 -0.162576 3.27132 -0.162576 2.62187 0.486876C2.13589 0.968631 1.97913 1.12405 1.76123 1.34006C-0.587057 3.68831 -0.587058 7.50921 1.76112 9.85738L9.13447 17.2346C11.4882 19.5884 15.2979 19.5886 17.6519 17.2346L18.5108 16.3757C19.162 15.7245 19.162 14.6649 18.5108 14.0138ZM3.40748 1.2759C3.62453 1.05884 3.97766 1.05881 4.19542 1.27649L6.55677 3.63042C6.77434 3.84799 6.77434 4.20012 6.55677 4.41773L6.16308 4.81139L3.01582 1.66414L3.40748 1.2759ZM9.92193 16.4474L2.54854 9.0701C0.731738 7.2533 0.631876 4.40051 2.24142 2.4644L5.37955 5.60252C4.55498 6.53727 4.58934 7.96165 5.48297 8.85528L10.1363 13.5126C10.1364 13.5126 10.1365 13.5127 10.1365 13.5127C11.0292 14.4054 12.4535 14.442 13.3894 13.6163L16.5276 16.7545C14.5976 18.3613 11.7512 18.2767 9.92193 16.4474ZM17.7235 15.5884L17.3298 15.9821L14.1805 12.8327L14.5742 12.4391C14.7912 12.222 15.1444 12.222 15.3615 12.4391L17.7235 14.8011C17.9406 15.0182 17.9406 15.3714 17.7235 15.5884Z" fill="#E5AE2B"/>
</svg>
