<svg width="14" height="19" viewBox="0 0 14 19" fill="none" xmlns="http://www.w3.org/2000/svg">
<path d="M6.88109 0C3.08684 0 0 3.08684 0 6.88105C0 11.5898 6.1579 18.5025 6.42008 18.7945C6.66634 19.0688 7.09629 19.0683 7.3421 18.7945C7.60428 18.5025 13.7622 11.5898 13.7622 6.88105C13.7621 3.08684 10.6753 0 6.88109 0ZM6.88109 17.4314C4.80864 14.9696 1.23916 10.1128 1.23916 6.88113C1.23916 3.77009 3.77009 1.23916 6.88109 1.23916C9.99208 1.23916 12.523 3.77009 12.523 6.88109C12.523 10.1129 8.95406 14.9688 6.88109 17.4314Z" fill="#E5AE2B"/>
<path d="M6.88096 3.41895C4.97197 3.41895 3.41895 4.97201 3.41895 6.88099C3.41895 8.78998 4.97201 10.343 6.88096 10.343C8.7899 10.343 10.3429 8.78998 10.3429 6.88099C10.3429 4.97201 8.7899 3.41895 6.88096 3.41895ZM6.88096 9.10389C5.65523 9.10389 4.6581 8.10672 4.6581 6.88099C4.6581 5.65527 5.65527 4.6581 6.88096 4.6581C8.10664 4.6581 9.10381 5.65527 9.10381 6.88099C9.10381 8.10672 8.10664 9.10389 6.88096 9.10389Z" fill="#E5AE2B"/>
</svg>
