<svg width="22" height="17" viewBox="0 0 22 17" fill="none" xmlns="http://www.w3.org/2000/svg">
<path d="M19.9375 0H2.06251C0.925174 0 0 0.953208 0 2.12501V14.875C0 16.0468 0.925174 17 2.06251 17H19.9375C21.0748 17 22 16.0468 22 14.875V2.12501C22 0.953208 21.0748 0 19.9375 0ZM19.9375 1.41666C20.0309 1.41666 20.1198 1.43663 20.201 1.4715L11 9.6877L1.79896 1.4715C1.8802 1.43667 1.96906 1.41666 2.06247 1.41666H19.9375ZM19.9375 15.5833H2.06251C1.68319 15.5833 1.37499 15.2658 1.37499 14.8749V2.96821L10.5495 11.1604C10.6791 11.2759 10.8395 11.3333 11 11.3333C11.1605 11.3333 11.3209 11.2759 11.4505 11.1604L20.625 2.96821V14.875C20.625 15.2658 20.3168 15.5833 19.9375 15.5833Z" fill="#E5AE2B"/>
</svg>
